<svg xmlns="http://www.w3.org/2000/svg" viewBox="0 0 900 580" role="img" aria-labelledby="t d"><title id="t">Solar-driven methane reforming research</title><desc id="d">Editorial schematic linking sunlight, nickel ceria catalyst interfaces, methane and carbon dioxide to syngas.</desc><rect width="900" height="580" fill="#edf1f7"/><g font-family="Arial,sans-serif" fill="#25354a"><text x="52" y="58" font-size="20" letter-spacing="4">02 / INTERFACES → REACTION</text><text x="53" y="142" font-size="40" font-weight="700">Solar-driven dry reforming</text><text x="54" y="180" font-size="22">CH₄ + CO₂ → 2H₂ + 2CO</text></g><circle cx="141" cy="317" r="62" fill="#f5bf52"/><g stroke="#f5bf52" stroke-width="7" stroke-linecap="round"><path d="M141 223v-25M141 436v-25M47 317H22M261 317h-25M75 251l-18-18M226 402l-18-18M75 383l-18 18M226 233l-18 18"/></g><path d="M230 317h120" stroke="#25354a" stroke-width="4" marker-end="url(#a)"/><defs><marker id="a" viewBox="0 0 10 10" refX="8" refY="5" markerWidth="8" markerHeight="8" orient="auto"><path d="M0 0l10 5-10 5z" fill="#25354a"/></marker></defs><g><rect x="360" y="244" width="260" height="154" rx="20" fill="#25354a"/><circle cx="420" cy="291" r="20" fill="#b4c7e2"/><circle cx="470" cy="349" r="28" fill="#e3a864"/><circle cx="546" cy="295" r="22" fill="#b4c7e2"/><circle cx="560" cy="354" r="12" fill="#f5bf52"/><text x="383" y="427" fill="#25354a" font-family="Arial,sans-serif" font-size="22">Ni / CeO₂ interface</text></g><path d="M636 317h78" stroke="#25354a" stroke-width="4" marker-end="url(#a)"/><g font-family="Arial,sans-serif" fill="#25354a"><text x="735" y="298" font-size="29" font-weight="700">H₂</text><text x="735" y="342" font-size="29" font-weight="700">CO</text><text x="53" y="521" font-size="18">Research schematic based on published collaborative studies in Nano Energy and Small.</text></g></svg>
